<svg width="1272" height="1943" xmlns="http://www.w3.org/2000/svg" xmlns:xlink="http://www.w3.org/1999/xlink" xml:space="preserve" overflow="hidden"><defs><clipPath id="clip0"><rect x="355" y="266" width="1272" height="1943"/></clipPath></defs><g clip-path="url(#clip0)" transform="translate(-355 -266)"><path d="M462.308 777.433 784.315 777.433 784.315 1481.72C784.315 1516.62 787.091 1539.62 792.643 1550.73 798.195 1561.83 809.431 1567.38 826.351 1567.38 858.075 1567.38 873.938 1540.68 873.938 1487.28L873.938 777.433 1195.94 777.433 1195.94 1481.72C1195.94 1515.56 1198.85 1538.3 1204.67 1549.93 1210.49 1561.56 1221.85 1567.38 1238.77 1567.38 1270.5 1567.38 1286.36 1538.83 1286.36 1481.72L1286.36 777.433 1608.37 777.433 1608.37 1557.07C1608.37 1654.36 1579.02 1733.67 1520.33 1795.01 1461.64 1856.34 1385.76 1887.01 1292.71 1887.01 1180.61 1887.01 1094.95 1835.98 1035.73 1733.94 999.251 1788.93 960.123 1828.19 918.352 1851.71 876.581 1875.24 825.029 1887.01 763.694 1887.01 666.405 1887.01 591.851 1856.34 540.034 1795.01 488.217 1733.67 462.308 1645.37 462.308 1530.1Z" fill-rule="evenodd"/><path d="M463.338 778.464 463.338 1530.09 463.7 1551.37 464.573 1572.02 466.132 1591.99 468.253 1611.4 470.933 1630.1 474.301 1648.19 478.228 1665.71 482.778 1682.54 487.887 1698.69 493.619 1714.26 499.971 1729.21 506.948 1743.48 514.479 1757.18 522.701 1770.2 531.413 1782.59 540.812 1794.35 550.772 1805.44 561.224 1815.83 572.241 1825.48 583.75 1834.44 595.825 1842.66 608.394 1850.19 621.527 1856.98 635.223 1863.08 649.357 1868.44 664.115 1873.11 679.377 1877.03 695.201 1880.27 711.531 1882.77 728.359 1884.58 745.755 1885.64 763.708 1886.01 786.218 1885.45 807.723 1883.83 828.41 1881.09 848.095 1877.23 866.905 1872.25 884.835 1866.22 901.761 1859.13 917.819 1850.85 933.32 1841.33 948.574 1830.38 963.526 1817.92 978.297 1803.96 992.822 1788.56 1007.1 1771.67 1021.07 1753.27 1034.89 1733.39C1035.09 1733.11 1035.41 1732.94 1035.76 1732.95 1036.11 1732.96 1036.43 1733.14 1036.61 1733.44L1048.02 1751.96 1059.98 1769.22 1072.63 1785.3 1085.83 1800.25 1099.72 1813.95 1114.16 1826.47 1129.23 1837.74 1144.91 1847.89 1161.23 1856.79 1178.16 1864.58 1195.71 1871.12 1213.83 1876.47 1232.64 1880.65 1252.01 1883.64 1272.08 1885.39 1292.71 1886.01 1309.92 1885.64 1326.68 1884.58 1343.14 1882.77 1359.09 1880.28 1374.66 1877.04 1389.86 1873.12 1404.62 1868.45 1419.01 1863.1 1433.02 1857 1446.6 1850.21 1459.74 1842.68 1472.5 1834.46 1484.9 1825.49 1496.86 1815.84 1508.44 1805.44 1519.6 1794.35 1530.25 1782.7 1540.16 1770.62 1549.44 1758.1 1557.97 1745.14 1565.88 1731.82 1573.05 1718.05 1579.59 1703.85 1585.45 1689.27 1590.56 1674.19 1595.04 1658.74 1598.78 1642.85 1601.9 1626.59 1604.27 1609.81 1606.02 1592.67 1607.02 1575.15 1607.39 1557.1 1607.39 778.51 1287.39 778.51 1287.39 1481.75 1287.2 1492.16 1286.63 1501.9 1285.69 1511.01 1284.43 1519.45 1282.72 1527.21 1280.64 1534.28 1278.22 1540.75 1275.35 1546.53 1272.1 1551.69 1268.51 1556.1 1264.63 1559.79C1264.59 1559.82 1264.55 1559.86 1264.51 1559.89L1260.08 1562.96 1255.45 1565.33C1255.41 1565.36 1255.36 1565.38 1255.31 1565.39L1250.31 1567.08C1250.27 1567.1 1250.22 1567.11 1250.17 1567.12L1244.6 1568.13 1238.75 1568.45 1232.59 1568.19 1226.84 1567.35 1221.71 1565.93 1217.14 1563.99C1217.1 1563.97 1217.05 1563.95 1217.01 1563.92L1213.01 1561.48C1212.96 1561.46 1212.92 1561.42 1212.88 1561.39L1209.38 1558.39C1209.33 1558.35 1209.29 1558.31 1209.25 1558.26L1206.31 1554.7C1206.28 1554.66 1206.25 1554.62 1206.23 1554.57L1203.72 1550.38 1201.62 1545.4 1199.85 1539.38 1198.34 1532.38 1197.15 1524.34 1196.14 1515.23 1195.52 1505.08 1195.08 1493.93 1194.95 1481.73 1194.95 778.51 875.013 778.51 875.013 1487.31 874.824 1497.04 874.257 1506.22 873.312 1514.71 871.988 1522.58 870.341 1529.85 868.25 1536.49 865.773 1542.58 862.96 1548 859.695 1552.78 856.042 1556.94 852.167 1560.38C852.129 1560.41 852.089 1560.44 852.046 1560.47L847.611 1563.35 842.853 1565.59 837.721 1567.18 832.164 1568.13 826.316 1568.45 820.147 1568.19 814.472 1567.35 809.344 1566 804.78 1564.12 800.78 1561.81C800.726 1561.78 800.675 1561.74 800.628 1561.7L797.253 1558.83C797.211 1558.79 797.172 1558.75 797.137 1558.71L794.262 1555.34C794.225 1555.29 794.193 1555.25 794.164 1555.2L791.789 1551.26C791.762 1551.22 791.739 1551.17 791.719 1551.12L789.743 1546.33 788.037 1540.38 786.589 1533.38 785.396 1525.26 784.518 1516.05 783.829 1505.7 783.453 1494.3 783.328 1481.73 783.328 778.51ZM462.309 776.403 784.359 776.45C784.927 776.45 785.388 776.911 785.388 777.48L785.388 1481.73 785.513 1494.28 785.888 1505.63 786.573 1515.91 787.446 1525.07 788.627 1533.08 790.054 1539.96 791.723 1545.76 793.593 1550.26 795.884 1554.06 798.651 1557.31 801.892 1560.07 805.811 1562.34 810.123 1564.09 814.995 1565.36 820.445 1566.15 826.401 1566.39 832.052 1566.08 837.371 1565.15 842.239 1563.62 846.73 1561.49 850.856 1558.78 854.675 1555.4 858.146 1551.43 861.257 1546.84 863.944 1541.63 866.341 1535.72 868.376 1529.23 869.979 1522.13 871.28 1514.37 872.21 1505.99 872.768 1496.92 872.953 1487.27 872.953 777.48C872.953 776.911 873.414 776.45 873.983 776.45L1195.98 776.45C1196.55 776.45 1197.01 776.911 1197.01 777.48L1197.01 1481.73 1197.14 1493.91 1197.57 1505 1198.2 1515.1 1199.19 1524.12 1200.38 1532.08 1201.86 1538.95 1203.6 1544.81 1205.62 1549.58 1207.95 1553.45 1210.78 1556.88 1214.15 1559.77 1218.02 1562.12 1222.51 1564.03 1227.38 1565.36 1232.88 1566.15 1238.84 1566.39 1244.49 1566.08 1249.72 1565.11 1254.58 1563.47 1259.14 1561.13 1263.27 1558.24 1267.09 1554.61 1270.5 1550.39 1273.61 1545.43 1276.37 1539.84 1278.71 1533.56 1280.75 1526.63 1282.41 1519.01 1283.65 1510.7 1284.58 1501.69 1285.14 1492.05 1285.33 1481.71 1285.33 777.48C1285.33 776.911 1285.79 776.45 1286.36 776.45L1608.42 776.45C1608.99 776.45 1609.45 776.911 1609.45 777.48L1609.45 1557.1 1609.08 1575.19 1608.07 1592.79 1606.32 1610.02 1603.94 1626.87 1600.81 1643.24 1597.05 1659.22 1592.53 1674.77 1587.4 1689.94 1581.5 1704.61 1574.92 1718.91 1567.71 1732.77 1559.74 1746.19 1551.16 1759.23 1541.81 1771.84 1531.84 1784.01 1521.12 1795.74 1509.9 1806.9 1498.23 1817.37 1486.19 1827.09 1473.71 1836.13 1460.85 1844.41 1447.62 1852 1433.94 1858.84 1419.83 1864.99 1405.34 1870.38 1390.48 1875.09 1375.18 1879.04 1359.51 1882.3 1343.45 1884.81 1326.91 1886.63 1310.05 1887.7 1292.76 1888.07 1272.01 1887.45 1251.83 1885.69 1232.33 1882.69 1213.39 1878.49 1195.13 1873.09 1177.44 1866.51 1160.37 1858.67 1143.93 1849.7 1128.11 1839.47 1112.93 1828.12 1098.37 1815.51 1084.38 1801.71 1071.09 1786.66 1058.36 1770.49 1046.32 1753.13 1035.68 1735.86 1022.77 1754.44 1008.74 1772.92 994.395 1789.89 979.795 1805.37 964.941 1819.42 949.893 1831.96 934.522 1843 918.897 1852.61 902.705 1860.96 885.631 1868.12 867.562 1874.21 848.622 1879.23 828.807 1883.12 807.994 1885.88 786.373 1887.51 763.759 1888.07 745.712 1887.7 728.233 1886.63 711.311 1884.82 694.89 1882.31 678.964 1879.05 663.602 1875.1 648.735 1870.4 634.493 1865.01 620.689 1858.86 607.448 1852.02 594.767 1844.43 582.591 1836.14 570.976 1827.11 559.867 1817.38 549.32 1806.9 539.28 1795.73 529.804 1783.87 521.016 1771.38 512.737 1758.28 505.143 1744.48 498.121 1730.12 491.723 1715.07 485.954 1699.4 480.814 1683.17 476.239 1666.25 472.291 1648.64 468.908 1630.48 466.214 1611.69 464.084 1592.22 462.519 1572.18 461.642 1551.46 461.279 1530.12 461.278 777.433C461.278 776.864 461.74 776.403 462.309 776.403Z" fill-rule="evenodd"/><path d="M434.733 734.014 747.361 734.014 747.361 1417.79C747.361 1451.67 750.056 1474 755.446 1484.78 760.836 1495.56 771.745 1500.95 788.172 1500.95 818.973 1500.95 834.373 1475.03 834.373 1423.18L834.373 734.014 1147 734.014 1147 1417.79C1147 1450.65 1149.82 1472.72 1155.47 1484.01 1161.12 1495.31 1172.15 1500.95 1188.58 1500.95 1219.38 1500.95 1234.78 1473.23 1234.78 1417.79L1234.78 734.014 1547.41 734.014 1547.41 1490.94C1547.41 1585.4 1518.92 1662.4 1461.94 1721.95 1404.96 1781.5 1331.29 1811.27 1240.94 1811.27 1132.11 1811.27 1048.95 1761.73 991.457 1662.66 956.036 1716.05 918.048 1754.16 877.494 1777 836.94 1799.85 786.888 1811.27 727.34 1811.27 632.885 1811.27 560.503 1781.5 510.195 1721.95 459.887 1662.4 434.733 1576.67 434.733 1464.76Z" stroke="#FFFFFF" stroke-width="2" stroke-linejoin="round" stroke-miterlimit="10" fill="#72B183" fill-rule="evenodd"/><text fill="#000000" fill-opacity="0" font-family="Arial,Arial_MSFontService,sans-serif" font-size="1077.26" x="434.733" y="1676.61">W</text></g></svg>