<svg 
                width="1272" 
                height="1943" 
                version = '1.0'  
                viewBox='0 0 1272 1943'
                xmlns="http://www.w3.org/2000/svg" 
                xlink="http://www.w3.org/1999/xlink" 
                space="preserve" 
                overflow="hidden"
            >
            


                <g 
                    className='svg-container' 
                    //clip-path="url(#clip0)" 
                    transform="translate(-355 -266)"
                    fill="none"
                >
                    
                    <path 
                        
                        d="M462.308 777.433 784.315 777.433 784.315 1481.72C784.315 1516.62 787.091 1539.62 792.643 1550.73 798.195 1561.83 809.431 1567.38 826.351 1567.38 858.075 1567.38 873.938 1540.68 873.938 1487.28L873.938 777.433 1195.94 777.433 1195.94 1481.72C1195.94 1515.56 1198.85 1538.3 1204.67 1549.93 1210.49 1561.56 1221.85 1567.38 1238.77 1567.38 1270.5 1567.38 1286.36 1538.83 1286.36 1481.72L1286.36 777.433 1608.37 777.433 1608.37 1557.07C1608.37 1654.36 1579.02 1733.67 1520.33 1795.01 1461.64 1856.34 1385.76 1887.01 1292.71 1887.01 1180.61 1887.01 1094.95 1835.98 1035.73 1733.94 999.251 1788.93 960.123 1828.19 918.352 1851.71 876.581 1875.24 825.029 1887.01 763.694 1887.01 666.405 1887.01 591.851 1856.34 540.034 1795.01 488.217 1733.67 462.308 1645.37 462.308 1530.1Z" 
                    />
                    <path
                        d="M434.733 734.014 747.361 734.014 747.361 1417.79C747.361 1451.67 750.056 1474 755.446 1484.78 760.836 1495.56 771.745 1500.95 788.172 1500.95 818.973 1500.95 834.373 1475.03 834.373 1423.18L834.373 734.014 1147 734.014 1147 1417.79C1147 1450.65 1149.82 1472.72 1155.47 1484.01 1161.12 1495.31 1172.15 1500.95 1188.58 1500.95 1219.38 1500.95 1234.78 1473.23 1234.78 1417.79L1234.78 734.014 1547.41 734.014 1547.41 1490.94C1547.41 1585.4 1518.92 1662.4 1461.94 1721.95 1404.96 1781.5 1331.29 1811.27 1240.94 1811.27 1132.11 1811.27 1048.95 1761.73 991.457 1662.66 956.036 1716.05 918.048 1754.16 877.494 1777 836.94 1799.85 786.888 1811.27 727.34 1811.27 632.885 1811.27 560.503 1781.5 510.195 1721.95 459.887 1662.4 434.733 1576.67 434.733 1464.76Z"
                    />
                </g>
 </svg>